<svg width="52" height="52" viewBox="0 0 52 52" fill="none" xmlns="http://www.w3.org/2000/svg">
<path d="M35.9736 0C44.8102 0 51.9736 7.16348 51.9736 16V35.9736C51.9736 44.8102 44.8102 51.9736 35.9736 51.9736H16C7.16344 51.9736 0 44.8102 0 35.9736V16C4.00722e-05 7.16348 7.16347 0 16 0H35.9736ZM34.9268 12.5742C35.0635 12.1099 34.5265 11.7414 34.1426 12.0361L25.6924 18.5312C25.5421 18.6466 25.3421 18.666 25.1748 18.5869L25.1055 18.5479L16.3164 12.5186L16.2402 12.4746C15.8551 12.2944 15.411 12.67 15.5625 13.0977L15.6846 13.4395L19.1289 23.1416C19.2011 23.3455 19.1334 23.5732 18.9619 23.7051L10.7998 29.9785L10.5127 30.2012C10.1533 30.478 10.3219 31.034 10.7432 31.0918L10.8311 31.0977L21.4844 30.8096C21.7009 30.8037 21.8972 30.9375 21.9697 31.1416L25.5352 41.1846L25.5723 41.2646C25.7779 41.6368 26.3574 41.594 26.4863 41.1592L29.6074 30.5898L31.8057 23.1445L34.9268 12.5742ZM36.4375 20.1621C35.976 19.4745 35.0443 19.2907 34.3564 19.752C33.6689 20.2136 33.4849 21.1462 33.9463 21.834L38.6328 28.8203L31.0762 33.1328C30.357 33.5435 30.1061 34.4603 30.5166 35.1797C30.9273 35.8984 31.8433 36.1483 32.5625 35.7383L41.0547 30.8936C42.0632 30.3179 42.3703 29.0065 41.7236 28.042L36.4375 20.1621ZM28.9287 22.2949L26.7305 29.7393L25.7881 32.9287L24.7969 30.1377L24.6914 29.875C24.1172 28.5948 22.8242 27.7711 21.4033 27.8096L18.4414 27.8887L20.791 26.084C21.993 25.1599 22.4632 23.5664 21.9561 22.1377L20.9648 19.3447L23.4082 21.0215C24.6583 21.8788 26.3185 21.8337 27.5205 20.9102L29.8711 19.1035L28.9287 22.2949Z" fill="white"/>
</svg>
